PathFileType	4	(X/Y/Z)	C:\Users\Basilio\Documents\Thesis Gigler\squatting_fais\c3dfiles\073\SLS_front_pre4\markers_experimental.trc
DataRate	CameraRate	NumFrames	NumMarkers	Units	OrigDataRate	OrigDataStartFrame	OrigNumFrames
200.000000	200.000000	4	61	mm	200.000000	498	1329
Frame#	Time	FHD			LBHD			RBHD			C7			T10			CLAV			LSHO			LUUPA			LMUPA			LDUPA			LLEP			LMEP			LRAD			LUL			LRFIN			RSHO			RUPA1			RMUPA			RDUPA			RLEP			RMEP			RRAD			RUL			RUFIN			LASI			RASI			USACR			LSACR			RSACR			LTHI1			LTHI2			LTHI3			LTHI4			LLFC			LMFC			LTIB1			LTIB2			LTIB3			LTIB4			LLMAL			LMMAL			LHEE			LMT1			LMT2			LMT5			RTHI			RTHI2			RTHI3			RTHI4			RLFC			RMFC			RTIB1			RTIB2			RTIB3			RTIB4			RLMAL			RMMAL			RHEE			RMT1			RMT2			RMT5			
		X1	Y1	Z1	X2	Y2	Z2	X3	Y3	Z3	X4	Y4	Z4	X5	Y5	Z5	X6	Y6	Z6	X7	Y7	Z7	X8	Y8	Z8	X9	Y9	Z9	X10	Y10	Z10	X11	Y11	Z11	X12	Y12	Z12	X13	Y13	Z13	X14	Y14	Z14	X15	Y15	Z15	X16	Y16	Z16	X17	Y17	Z17	X18	Y18	Z18	X19	Y19	Z19	X20	Y20	Z20	X21	Y21	Z21	X22	Y22	Z22	X23	Y23	Z23	X24	Y24	Z24	X25	Y25	Z25	X26	Y26	Z26	X27	Y27	Z27	X28	Y28	Z28	X29	Y29	Z29	X30	Y30	Z30	X31	Y31	Z31	X32	Y32	Z32	X33	Y33	Z33	X34	Y34	Z34	X35	Y35	Z35	X36	Y36	Z36	X37	Y37	Z37	X38	Y38	Z38	X39	Y39	Z39	X40	Y40	Z40	X41	Y41	Z41	X42	Y42	Z42	X43	Y43	Z43	X44	Y44	Z44	X45	Y45	Z45	X46	Y46	Z46	X47	Y47	Z47	X48	Y48	Z48	X49	Y49	Z49	X50	Y50	Z50	X51	Y51	Z51	X52	Y52	Z52	X53	Y53	Z53	X54	Y54	Z54	X55	Y55	Z55	X56	Y56	Z56	X57	Y57	Z57	X58	Y58	Z58	X59	Y59	Z59	X60	Y60	Z60	X61	Y61	Z61	

499	2.49	-186.348388671875	1490.4072265625	-795.5023193359377	-321.0357055664063	1466.8134765625	-824.2271728515627	-349.3594360351563	1451.60546875	-691.4182739257814	-380.7635803222657	1363.935546875	-754.0490112304689	-538.3345336914064	1070.630737304688	-746.9625244140626	-279.7480468750001	1254.060791015625	-747.8128051757814	-294.3116760253907	1311.935791015625	-888.8613891601565	-215.7229766845704	1238.576049804688	-983.0303955078127	-175.0776062011719	1258.853515625	-960.6239013671877	-152.8593139648438	1211.048461914063	-991.1962890625002	-47.97152709960938	1188.23486328125	-993.0097656250002	-50.20186614990236	1136.004150390625	-945.7423095703127	209.6219329833985	1234.15234375	-882.3055419921877	214.0545959472657	1228.5576171875	-956.7053833007815	289.2553405761719	1252.078247070313	-875.419860839844	-288.6085815429688	1311.437744140625	-612.9754028320314	-202.9049072265626	1223.302490234375	-505.0969848632814	-163.8539123535157	1244.802612304688	-523.5117797851564	-139.6458435058594	1196.68212890625	-497.1400756835939	-46.81324005126954	1182.0849609375	-496.4094238281251	-48.19429016113283	1124.681640625	-556.1685180664064	206.5131530761719	1218.078735351563	-613.7611083984376	215.5027160644532	1229.17041015625	-538.0062866210939	292.4081115722657	1245.656860351563	-620.2342529296876	-413.1716918945314	902.5117797851565	-886.5105590820315	-397.7273254394532	882.640563964844	-640.1888427734376	-582.6278686523439	942.4719848632815	-747.4421386718751	-593.3597412109376	913.770935058594	-776.8296508789065	-592.1971435546876	908.2010498046877	-721.3119506835939	-243.0966033935547	695.8786010742189	-945.3525390625002	-162.9204711914063	678.6105346679689	-922.9167480468752	-145.3179779052735	711.2978515625001	-889.6579589843752	-138.623519897461	625.3621826171876	-915.1851806640627	-92.27160644531251	588.4252319335939	-914.103942871094	-97.39225769042972	577.5819091796876	-774.503845214844	85.86707305908205	493.5162048339845	-860.2109985351565	79.19097137451173	425.8730468750001	-914.822937011719	110.8611221313477	449.9539489746095	-893.1398925781252	169.1676177978516	398.1715698242189	-859.6013183593752	216.7061920166016	273.3568115234376	-886.424743652344	204.5491638183594	294.5753173828126	-801.6848144531252	197.7543182373047	208.0806274414063	-845.7478027343752	357.0321655273438	360.3307495117188	-796.3156738281252	359.6801452636719	363.3736267089844	-835.7275390625002	353.1572875976563	323.3758544921876	-890.4756469726565	-348.0762939453126	658.4565429687501	-594.2768554687501	-284.9556579589844	638.6761474609376	-599.3183593750001	-260.1158752441407	660.3286132812501	-603.4225463867189	-258.1287536621094	563.9076538085939	-626.8502197265626	-172.3465576171875	458.794647216797	-660.3038940429689	-175.9643859863282	468.5545654296876	-787.8838500976565	-192.1528625488282	313.4774475097657	-767.5601196289064	-239.1820983886719	240.4265899658204	-704.2073364257814	-222.7927551269532	233.6099548339844	-748.3267211914064	-263.7462158203126	205.9183654785157	-779.7620849609377	-354.5069580078126	99.16304016113284	-723.7902832031251	-347.6198730468751	126.9451293945313	-811.780456542969	-432.2901306152345	83.0642547607422	-777.676696777344	-209.1880645751954	54.42100524902345	-788.9379882812502	-208.892562866211	54.2677574157715	-747.7203979492189	-253.0909729003907	36.68026351928712	-700.8073120117189	
500	2.495	-186.2967224121094	1489.087768554688	-795.733825683594	-320.7317199707032	1465.5048828125	-824.457702636719	-349.1033935546876	1450.447509765625	-691.5668334960939	-380.4524230957032	1362.684326171875	-754.1409912109376	-538.4754028320314	1069.778442382813	-746.8663330078126	-279.5420227050782	1252.668090820313	-747.9320068359376	-294.2043762207032	1310.550048828125	-888.9353027343752	-215.5156555175782	1237.1787109375	-983.1885375976565	-174.9790649414063	1257.317993164063	-960.8022460937502	-152.7944641113282	1209.480712890625	-991.1909179687502	-47.83344268798829	1186.7978515625	-993.143737792969	-50.023006439209	1134.606079101563	-945.946960449219	209.7256469726563	1232.547729492188	-882.4797973632815	213.9722900390626	1226.79150390625	-956.7964477539065	289.3838500976563	1250.587890625	-875.4719848632815	-288.4206848144532	1310.269409179688	-613.1448364257814	-202.7303619384766	1222.219970703125	-505.1275024414064	-163.6329193115235	1243.782104492188	-523.5188598632814	-139.4340362548828	1195.632202148438	-497.1772766113282	-46.62816619873048	1181.041748046875	-496.4925231933595	-48.02885055541994	1123.474975585938	-556.0690917968751	206.7194519042969	1216.776977539063	-613.7681274414064	215.6364440917969	1228.002563476563	-537.9272460937501	292.5337524414063	1244.309814453125	-620.3997192382814	-413.5541076660157	901.4907226562502	-886.358337402344	-397.8860473632814	881.7510986328127	-640.1022338867189	-582.8907470703126	941.5306396484377	-747.2219848632814	-593.7139892578126	912.904479980469	-776.5805664062502	-592.3920898437501	907.2097167968752	-721.0692749023439	-243.1755523681641	695.1275634765626	-945.127380371094	-162.9275054931641	678.1064453125001	-922.7578735351565	-145.3615112304688	710.8403930664064	-889.3872680664065	-138.6648254394532	624.8398437500001	-915.0517578125002	-92.21826171875001	587.9580078125001	-913.877868652344	-97.27392578125003	577.2160034179689	-774.2309570312502	86.04843902587892	493.4101867675782	-859.8064575195315	79.50513458251955	425.8279113769532	-914.6807861328127	111.1067123413086	449.8718872070314	-892.8624267578127	169.5047454833985	398.1605834960939	-859.3140869140627	217.1967010498047	273.3811340332032	-886.0979003906252	205.089828491211	294.5217590332032	-801.4084472656252	198.3773651123047	208.1617279052735	-845.279724121094	357.5046081542969	360.6769714355469	-796.0499267578127	360.1987915039063	363.6670837402344	-835.4219970703127	353.7597656250001	323.6589355468751	-890.101013183594	-347.8238830566407	657.7150268554689	-594.5094604492189	-284.5614013671876	638.0787353515626	-599.5643310546876	-259.7853393554688	659.7717285156251	-603.8743286132814	-257.6329040527344	563.4448242187501	-627.2589111328126	-171.7961730957032	458.5796508789064	-660.9594726562501	-175.6026000976563	468.3650207519532	-788.525085449219	-191.9372253417969	313.2598876953126	-768.183288574219	-238.9204864501954	240.2579956054688	-704.7214355468751	-222.558090209961	233.4433135986329	-748.8494873046876	-263.6482849121094	205.8594055175782	-779.5369873046877	-354.4638061523438	99.23064422607425	-723.9489746093751	-347.6413879394532	126.8660964965821	-812.0283813476565	-432.2701110839845	83.06616973876955	-777.7524414062502	-209.1671905517579	54.42075347900392	-788.9874267578127	-208.9208374023438	54.35123825073244	-747.7899169921876	-253.0950164794922	36.7590446472168	-700.9024658203126	
501	2.5	-185.7355346679688	1487.731689453125	-796.0041503906252	-320.4558410644532	1464.196166992188	-824.6674804687502	-348.8183288574219	1449.265014648438	-691.9612426757814	-380.1901245117188	1361.554931640625	-754.3197631835939	-538.6267089843751	1068.841918945313	-746.7509155273439	-280.0243225097657	1251.205078125	-748.2119750976564	-293.9338378906251	1309.24951171875	-889.0662231445315	-215.3701782226563	1235.591918945313	-983.1542968750002	-174.9477691650391	1255.75439453125	-960.8733520507815	-152.5989685058594	1208.08447265625	-991.3104248046877	-47.9237289428711	1185.131225585938	-993.285827636719	-49.90501785278322	1133.085571289063	-946.0283813476565	209.8030700683594	1231.217041015625	-882.590759277344	214.3646240234376	1225.388671875	-957.0183715820315	289.4895935058594	1249.035766601563	-875.8300781250002	-288.1534729003907	1309.291625976563	-613.2986450195314	-202.5042724609376	1221.210571289063	-505.2478027343751	-163.4403228759766	1242.775512695313	-523.6642456054689	-139.2372741699219	1194.706298828125	-497.2258605957032	-46.48284530639649	1179.876953125	-496.427215576172	-47.89052200317384	1122.572875976563	-555.9885864257814	206.8149871826172	1215.67919921875	-613.7720336914064	215.9262084960938	1226.812622070313	-537.9990844726564	292.7756652832032	1243.124145507813	-620.2407226562501	-414.000457763672	900.4765625000002	-886.1859130859377	-398.0852050781251	880.8513793945315	-640.0330200195314	-582.9774169921876	940.6118774414065	-747.1020507812501	-594.0872802734376	911.8465576171877	-776.3032226562502	-592.6448974609376	906.1680908203127	-720.8613891601564	-243.2022705078126	694.4862060546876	-944.8735351562502	-163.0235595703125	677.5836181640626	-922.672790527344	-145.4951629638672	710.3131103515626	-889.186462402344	-138.6722412109375	624.3364868164064	-914.695739746094	-92.10137939453126	587.6196289062501	-913.7441406250002	-97.17898559570315	576.8850097656251	-774.008972167969	86.14694213867189	493.1327209472657	-859.7205200195315	79.56304931640626	425.5820312500001	-914.380798339844	111.3131942749024	449.7776489257814	-892.5263671875002	169.8519439697266	398.1893310546876	-858.9433593750002	217.7075958251954	273.4262084960938	-885.777526855469	205.419418334961	294.7154846191407	-800.747741699219	198.914047241211	208.1457214355469	-844.8590087890627	357.8572387695313	360.8914489746094	-795.6005859375002	360.5966491699219	363.8793945312501	-834.980895996094	354.1623229980469	323.8588867187501	-889.8013305664065	-347.4694824218751	657.0114135742189	-594.7229614257814	-284.1059265136719	637.5336914062501	-599.8402709960939	-259.4478759765626	659.2751464843751	-604.3096313476564	-257.0841674804688	562.9597778320314	-627.7195434570314	-171.1773529052735	458.3441162109376	-661.6296997070314	-175.2655639648438	468.1603393554689	-789.1953735351565	-191.6752471923828	313.0814208984376	-768.7943115234377	-238.6228942871094	240.1791076660157	-705.1197509765626	-222.2976226806641	233.2964935302735	-749.3466796875001	-263.4942932128907	205.7023010253907	-779.9243164062502	-354.4073486328126	99.31475067138675	-724.0549926757814	-347.6497802734376	126.8000869750977	-812.1649169921877	-432.2613220214845	83.0690383911133	-777.800720214844	-209.1728515625001	54.428524017334	-788.9998168945315	-208.9127044677735	54.42591094970705	-747.8471679687501	-253.0822448730469	36.84630966186524	-700.9616699218751	
502	2.505	-185.6304016113282	1486.467163085938	-796.133239746094	-320.1802368164063	1462.87060546875	-824.9351806640627	-348.5708312988282	1448.0537109375	-692.0056762695314	-379.9508056640626	1360.430419921875	-754.4628295898439	-538.7515869140626	1067.871337890625	-746.6780395507814	-279.2865600585938	1250.18115234375	-748.0794067382814	-293.7567749023438	1307.873901367188	-889.1350097656252	-215.3128356933594	1234.262817382813	-983.1987304687502	-174.6846466064453	1254.393798828125	-961.0290527343752	-152.4958648681641	1206.484985351563	-991.4190063476565	-47.60893630981446	1183.764526367188	-993.2540283203127	-49.87276840209962	1131.694458007813	-945.8948364257815	209.8588867187501	1229.646240234375	-882.8093872070315	214.1705932617188	1223.578857421875	-957.1223144531252	289.6928100585938	1247.44921875	-875.9973144531252	-287.9750671386719	1308.161987304688	-613.4608154296876	-202.2704315185547	1220.202026367188	-505.2269897460939	-163.2438507080078	1241.640380859375	-523.7732543945314	-139.0781707763672	1193.600830078125	-497.2621154785157	-46.31816482543946	1178.900268554688	-496.3747558593751	-47.64335632324219	1121.4638671875	-555.9336547851564	206.7889709472657	1214.206176757813	-613.6088867187501	216.0626678466797	1225.637817382813	-537.9387817382814	292.8942260742188	1241.822265625	-620.4107666015626	-414.2950439453126	899.4113769531252	-886.0664062500002	-398.2347717285157	879.9255981445315	-639.9625244140626	-583.2039184570314	939.564147949219	-746.9140625000001	-594.3817749023439	910.8901367187502	-776.111267089844	-592.8974609375001	905.2424926757815	-720.6968994140626	-243.3329467773438	693.7622680664064	-944.6705322265627	-163.0965728759766	677.0561523437501	-922.4901123046877	-145.6221618652344	709.8386840820314	-889.0103759765627	-138.5735931396485	623.8073730468751	-914.4405517578127	-91.96437835693361	587.2587890625001	-913.6018066406252	-97.0983810424805	576.5519409179689	-773.7820434570315	86.30244445800783	492.9752807617189	-859.4143676757815	79.88403320312501	425.3544921875001	-914.028747558594	111.5537872314453	449.6533813476564	-892.2124633789065	170.03076171875	398.0488281250001	-858.7678833007815	218.2976226806641	273.3926391601563	-885.3020629882815	205.8819580078126	294.7429809570313	-800.3037109375002	199.5497131347657	208.1411895751954	-844.4879150390627	357.9381103515626	361.3366394042969	-795.284362792969	360.9676513671876	364.1012268066407	-834.6105957031252	354.5351562500001	324.0380249023438	-889.487976074219	-347.1077880859376	656.2668457031251	-594.9231567382814	-283.6557922363282	636.9536743164064	-600.1873779296876	-259.0843811035157	658.8583374023439	-604.7666015625001	-256.5293579101563	562.4656982421876	-628.1359863281251	-170.4608154296875	458.1710510253907	-662.2656250000001	-174.9093933105469	467.9654235839845	-789.8255004882815	-191.4245300292969	312.8266601562501	-769.2231445312502	-238.3039550781251	240.077865600586	-705.5067138671876	-222.1203765869141	233.1161041259766	-749.7161865234376	-263.2140808105469	205.5306396484376	-780.959899902344	-354.3513793945313	99.3815612792969	-724.1529541015626	-347.6576538085938	126.7287063598633	-812.3176879882815	-432.2474670410157	83.10569763183595	-777.7626953125002	-209.1459045410157	54.44268035888673	-789.0298461914065	-208.8889770507813	54.50681304931642	-747.8904418945314	-253.0747985839844	36.92332839965821	-701.0095214843751	
